<mxfile host="app.diagrams.net" modified="2023-12-01T15:34:01.790Z" agent="Mozilla/5.0 (Windows NT 10.0; Win64; x64) AppleWebKit/537.36 (KHTML, like Gecko) Chrome/119.0.0.0 Safari/537.36" etag="OuqEIcWAhGpOzjlJiP4t" version="22.1.5" type="device">
  <diagram name="Page-1" id="TGJ9R3pqVkP3FAm6jeBf">
    <mxGraphModel dx="1311" dy="1867" grid="1" gridSize="10" guides="1" tooltips="1" connect="1" arrows="1" fold="1" page="1" pageScale="1" pageWidth="827" pageHeight="1169" math="0" shadow="0">
      <root>
        <mxCell id="0" />
        <mxCell id="1" parent="0" />
        <mxCell id="kKCdDSTvEWHpOOfMTZLk-17" style="edgeStyle=orthogonalEdgeStyle;rounded=0;orthogonalLoop=1;jettySize=auto;html=1;entryX=0;entryY=0.5;entryDx=0;entryDy=0;startArrow=classicThin;startFill=1;endArrow=classicThin;endFill=1;" edge="1" parent="1" source="kKCdDSTvEWHpOOfMTZLk-2" target="kKCdDSTvEWHpOOfMTZLk-14">
          <mxGeometry relative="1" as="geometry" />
        </mxCell>
        <mxCell id="kKCdDSTvEWHpOOfMTZLk-2" value="MainWindow_V" style="swimlane;fontStyle=0;childLayout=stackLayout;horizontal=1;startSize=30;horizontalStack=0;resizeParent=1;resizeParentMax=0;resizeLast=0;collapsible=1;marginBottom=0;whiteSpace=wrap;html=1;fillColor=#fff2cc;strokeColor=#d6b656;" vertex="1" parent="1">
          <mxGeometry x="100" y="150" width="190" height="120" as="geometry" />
        </mxCell>
        <mxCell id="kKCdDSTvEWHpOOfMTZLk-3" value="+ LogView: MyLogView&amp;nbsp;" style="text;strokeColor=none;fillColor=none;align=left;verticalAlign=middle;spacingLeft=4;spacingRight=4;overflow=hidden;points=[[0,0.5],[1,0.5]];portConstraint=eastwest;rotatable=0;whiteSpace=wrap;html=1;" vertex="1" parent="kKCdDSTvEWHpOOfMTZLk-2">
          <mxGeometry y="30" width="190" height="30" as="geometry" />
        </mxCell>
        <mxCell id="kKCdDSTvEWHpOOfMTZLk-4" value="+ MenuView MyMenuView" style="text;strokeColor=none;fillColor=none;align=left;verticalAlign=middle;spacingLeft=4;spacingRight=4;overflow=hidden;points=[[0,0.5],[1,0.5]];portConstraint=eastwest;rotatable=0;whiteSpace=wrap;html=1;" vertex="1" parent="kKCdDSTvEWHpOOfMTZLk-2">
          <mxGeometry y="60" width="190" height="30" as="geometry" />
        </mxCell>
        <mxCell id="kKCdDSTvEWHpOOfMTZLk-5" value="ConnexionController CnxCtrl" style="text;strokeColor=none;fillColor=none;align=left;verticalAlign=middle;spacingLeft=4;spacingRight=4;overflow=hidden;points=[[0,0.5],[1,0.5]];portConstraint=eastwest;rotatable=0;whiteSpace=wrap;html=1;" vertex="1" parent="kKCdDSTvEWHpOOfMTZLk-2">
          <mxGeometry y="90" width="190" height="30" as="geometry" />
        </mxCell>
        <mxCell id="kKCdDSTvEWHpOOfMTZLk-18" style="edgeStyle=orthogonalEdgeStyle;rounded=0;orthogonalLoop=1;jettySize=auto;html=1;entryX=0;entryY=0.5;entryDx=0;entryDy=0;" edge="1" parent="1" source="kKCdDSTvEWHpOOfMTZLk-6" target="kKCdDSTvEWHpOOfMTZLk-4">
          <mxGeometry relative="1" as="geometry" />
        </mxCell>
        <mxCell id="kKCdDSTvEWHpOOfMTZLk-23" style="edgeStyle=orthogonalEdgeStyle;rounded=0;orthogonalLoop=1;jettySize=auto;html=1;endArrow=classicThin;endFill=1;startArrow=classicThin;startFill=1;" edge="1" parent="1" source="kKCdDSTvEWHpOOfMTZLk-6" target="kKCdDSTvEWHpOOfMTZLk-20">
          <mxGeometry relative="1" as="geometry" />
        </mxCell>
        <mxCell id="kKCdDSTvEWHpOOfMTZLk-6" value="LogView_V" style="swimlane;fontStyle=0;childLayout=stackLayout;horizontal=1;startSize=30;horizontalStack=0;resizeParent=1;resizeParentMax=0;resizeLast=0;collapsible=1;marginBottom=0;whiteSpace=wrap;html=1;fillColor=#fff2cc;strokeColor=#d6b656;" vertex="1" parent="1">
          <mxGeometry x="-210" y="30" width="220" height="60" as="geometry" />
        </mxCell>
        <mxCell id="kKCdDSTvEWHpOOfMTZLk-9" value="+ LogController: MyLogController" style="text;strokeColor=none;fillColor=none;align=left;verticalAlign=middle;spacingLeft=4;spacingRight=4;overflow=hidden;points=[[0,0.5],[1,0.5]];portConstraint=eastwest;rotatable=0;whiteSpace=wrap;html=1;" vertex="1" parent="kKCdDSTvEWHpOOfMTZLk-6">
          <mxGeometry y="30" width="220" height="30" as="geometry" />
        </mxCell>
        <mxCell id="kKCdDSTvEWHpOOfMTZLk-19" style="edgeStyle=orthogonalEdgeStyle;rounded=0;orthogonalLoop=1;jettySize=auto;html=1;entryX=0;entryY=0.5;entryDx=0;entryDy=0;" edge="1" parent="1" source="kKCdDSTvEWHpOOfMTZLk-10" target="kKCdDSTvEWHpOOfMTZLk-4">
          <mxGeometry relative="1" as="geometry" />
        </mxCell>
        <mxCell id="kKCdDSTvEWHpOOfMTZLk-31" style="edgeStyle=orthogonalEdgeStyle;rounded=0;orthogonalLoop=1;jettySize=auto;html=1;entryX=0.5;entryY=0;entryDx=0;entryDy=0;curved=1;dashed=1;dashPattern=1 1;strokeWidth=3;endArrow=classicThin;endFill=1;" edge="1" parent="1" source="kKCdDSTvEWHpOOfMTZLk-10" target="kKCdDSTvEWHpOOfMTZLk-26">
          <mxGeometry relative="1" as="geometry" />
        </mxCell>
        <mxCell id="kKCdDSTvEWHpOOfMTZLk-10" value="MenuView_V" style="swimlane;fontStyle=0;childLayout=stackLayout;horizontal=1;startSize=30;horizontalStack=0;resizeParent=1;resizeParentMax=0;resizeLast=0;collapsible=1;marginBottom=0;whiteSpace=wrap;html=1;fillColor=#fff2cc;strokeColor=#d6b656;" vertex="1" parent="1">
          <mxGeometry x="-210" y="270" width="220" height="60" as="geometry" />
        </mxCell>
        <mxCell id="kKCdDSTvEWHpOOfMTZLk-11" value="+ MenuController: MyMenuController" style="text;strokeColor=none;fillColor=none;align=left;verticalAlign=middle;spacingLeft=4;spacingRight=4;overflow=hidden;points=[[0,0.5],[1,0.5]];portConstraint=eastwest;rotatable=0;whiteSpace=wrap;html=1;" vertex="1" parent="kKCdDSTvEWHpOOfMTZLk-10">
          <mxGeometry y="30" width="220" height="30" as="geometry" />
        </mxCell>
        <mxCell id="kKCdDSTvEWHpOOfMTZLk-25" style="edgeStyle=orthogonalEdgeStyle;rounded=0;orthogonalLoop=1;jettySize=auto;html=1;dashed=1;strokeWidth=4;curved=1;dashPattern=1 1;" edge="1" parent="1" source="kKCdDSTvEWHpOOfMTZLk-12" target="kKCdDSTvEWHpOOfMTZLk-24">
          <mxGeometry relative="1" as="geometry" />
        </mxCell>
        <mxCell id="kKCdDSTvEWHpOOfMTZLk-12" value="ConnexionController_C" style="swimlane;fontStyle=0;childLayout=stackLayout;horizontal=1;startSize=30;horizontalStack=0;resizeParent=1;resizeParentMax=0;resizeLast=0;collapsible=1;marginBottom=0;whiteSpace=wrap;html=1;fillColor=#e1d5e7;strokeColor=#9673a6;" vertex="1" parent="1">
          <mxGeometry x="500" y="135" width="270" height="150" as="geometry" />
        </mxCell>
        <mxCell id="kKCdDSTvEWHpOOfMTZLk-13" value="- MainWindow: _view" style="text;strokeColor=none;fillColor=none;align=left;verticalAlign=middle;spacingLeft=4;spacingRight=4;overflow=hidden;points=[[0,0.5],[1,0.5]];portConstraint=eastwest;rotatable=0;whiteSpace=wrap;html=1;" vertex="1" parent="kKCdDSTvEWHpOOfMTZLk-12">
          <mxGeometry y="30" width="270" height="30" as="geometry" />
        </mxCell>
        <mxCell id="kKCdDSTvEWHpOOfMTZLk-14" value="- void: ConfigureConnexionButtons()" style="text;strokeColor=none;fillColor=none;align=left;verticalAlign=middle;spacingLeft=4;spacingRight=4;overflow=hidden;points=[[0,0.5],[1,0.5]];portConstraint=eastwest;rotatable=0;whiteSpace=wrap;html=1;" vertex="1" parent="kKCdDSTvEWHpOOfMTZLk-12">
          <mxGeometry y="60" width="270" height="30" as="geometry" />
        </mxCell>
        <mxCell id="kKCdDSTvEWHpOOfMTZLk-15" value="- void : HandleConnexion()" style="text;strokeColor=none;fillColor=none;align=left;verticalAlign=middle;spacingLeft=4;spacingRight=4;overflow=hidden;points=[[0,0.5],[1,0.5]];portConstraint=eastwest;rotatable=0;whiteSpace=wrap;html=1;" vertex="1" parent="kKCdDSTvEWHpOOfMTZLk-12">
          <mxGeometry y="90" width="270" height="30" as="geometry" />
        </mxCell>
        <mxCell id="kKCdDSTvEWHpOOfMTZLk-16" value="- void HandleDeconnexion()" style="text;strokeColor=none;fillColor=none;align=left;verticalAlign=middle;spacingLeft=4;spacingRight=4;overflow=hidden;points=[[0,0.5],[1,0.5]];portConstraint=eastwest;rotatable=0;whiteSpace=wrap;html=1;" vertex="1" parent="kKCdDSTvEWHpOOfMTZLk-12">
          <mxGeometry y="120" width="270" height="30" as="geometry" />
        </mxCell>
        <mxCell id="kKCdDSTvEWHpOOfMTZLk-30" value="" style="edgeStyle=orthogonalEdgeStyle;rounded=0;orthogonalLoop=1;jettySize=auto;html=1;curved=1;dashed=1;dashPattern=1 1;strokeWidth=3;endArrow=classicThin;endFill=1;" edge="1" parent="1" source="kKCdDSTvEWHpOOfMTZLk-20" target="kKCdDSTvEWHpOOfMTZLk-29">
          <mxGeometry relative="1" as="geometry" />
        </mxCell>
        <mxCell id="kKCdDSTvEWHpOOfMTZLk-20" value="LogController_C" style="swimlane;fontStyle=0;childLayout=stackLayout;horizontal=1;startSize=30;horizontalStack=0;resizeParent=1;resizeParentMax=0;resizeLast=0;collapsible=1;marginBottom=0;whiteSpace=wrap;html=1;fillColor=#e1d5e7;strokeColor=#9673a6;" vertex="1" parent="1">
          <mxGeometry x="-210" y="-170" width="220" height="90" as="geometry" />
        </mxCell>
        <mxCell id="kKCdDSTvEWHpOOfMTZLk-21" value="- LogView: _view" style="text;strokeColor=none;fillColor=none;align=left;verticalAlign=middle;spacingLeft=4;spacingRight=4;overflow=hidden;points=[[0,0.5],[1,0.5]];portConstraint=eastwest;rotatable=0;whiteSpace=wrap;html=1;" vertex="1" parent="kKCdDSTvEWHpOOfMTZLk-20">
          <mxGeometry y="30" width="220" height="30" as="geometry" />
        </mxCell>
        <mxCell id="kKCdDSTvEWHpOOfMTZLk-22" value="+ string: ValidateInput()" style="text;strokeColor=none;fillColor=none;align=left;verticalAlign=middle;spacingLeft=4;spacingRight=4;overflow=hidden;points=[[0,0.5],[1,0.5]];portConstraint=eastwest;rotatable=0;whiteSpace=wrap;html=1;" vertex="1" parent="kKCdDSTvEWHpOOfMTZLk-20">
          <mxGeometry y="60" width="220" height="30" as="geometry" />
        </mxCell>
        <mxCell id="kKCdDSTvEWHpOOfMTZLk-24" value="" style="rounded=1;whiteSpace=wrap;html=1;align=left;" vertex="1" parent="1">
          <mxGeometry x="1010" y="-300" width="340" height="480" as="geometry" />
        </mxCell>
        <mxCell id="kKCdDSTvEWHpOOfMTZLk-26" value="MenuController_C" style="swimlane;fontStyle=0;childLayout=stackLayout;horizontal=1;startSize=30;horizontalStack=0;resizeParent=1;resizeParentMax=0;resizeLast=0;collapsible=1;marginBottom=0;whiteSpace=wrap;html=1;fillColor=#e1d5e7;strokeColor=#9673a6;" vertex="1" parent="1">
          <mxGeometry x="-330" y="540" width="220" height="90" as="geometry" />
        </mxCell>
        <mxCell id="kKCdDSTvEWHpOOfMTZLk-27" value="- MenuView: _view" style="text;strokeColor=none;fillColor=none;align=left;verticalAlign=middle;spacingLeft=4;spacingRight=4;overflow=hidden;points=[[0,0.5],[1,0.5]];portConstraint=eastwest;rotatable=0;whiteSpace=wrap;html=1;" vertex="1" parent="kKCdDSTvEWHpOOfMTZLk-26">
          <mxGeometry y="30" width="220" height="30" as="geometry" />
        </mxCell>
        <mxCell id="kKCdDSTvEWHpOOfMTZLk-28" value="/" style="text;strokeColor=none;fillColor=none;align=left;verticalAlign=middle;spacingLeft=4;spacingRight=4;overflow=hidden;points=[[0,0.5],[1,0.5]];portConstraint=eastwest;rotatable=0;whiteSpace=wrap;html=1;" vertex="1" parent="kKCdDSTvEWHpOOfMTZLk-26">
          <mxGeometry y="60" width="220" height="30" as="geometry" />
        </mxCell>
        <mxCell id="kKCdDSTvEWHpOOfMTZLk-29" value="&amp;nbsp; ValidateInput sera appelé depuis le ConnexionController dans la méthode HandleConnexion pour savoir si la query peut être effectuée" style="shape=note;whiteSpace=wrap;html=1;backgroundOutline=1;darkOpacity=0.05;size=22;align=left;" vertex="1" parent="1">
          <mxGeometry x="-360" y="-540" width="220" height="210" as="geometry" />
        </mxCell>
        <mxCell id="kKCdDSTvEWHpOOfMTZLk-32" value="User" style="shape=umlActor;verticalLabelPosition=bottom;verticalAlign=top;html=1;outlineConnect=0;" vertex="1" parent="1">
          <mxGeometry x="430" y="370" width="40" height="90" as="geometry" />
        </mxCell>
        <mxCell id="kKCdDSTvEWHpOOfMTZLk-33" value="MainWindow" style="rounded=0;whiteSpace=wrap;html=1;" vertex="1" parent="1">
          <mxGeometry x="680" y="430" width="120" height="45" as="geometry" />
        </mxCell>
        <mxCell id="kKCdDSTvEWHpOOfMTZLk-34" value="" style="endArrow=none;html=1;rounded=0;exitX=0.5;exitY=1;exitDx=0;exitDy=0;" edge="1" parent="1" source="kKCdDSTvEWHpOOfMTZLk-33">
          <mxGeometry width="50" height="50" relative="1" as="geometry">
            <mxPoint x="630" y="480" as="sourcePoint" />
            <mxPoint x="740" y="1100" as="targetPoint" />
          </mxGeometry>
        </mxCell>
        <mxCell id="kKCdDSTvEWHpOOfMTZLk-35" value="" style="endArrow=none;html=1;rounded=0;exitX=0.5;exitY=1;exitDx=0;exitDy=0;" edge="1" parent="1">
          <mxGeometry width="50" height="50" relative="1" as="geometry">
            <mxPoint x="449.41" y="480" as="sourcePoint" />
            <mxPoint x="449.41" y="1105" as="targetPoint" />
          </mxGeometry>
        </mxCell>
      </root>
    </mxGraphModel>
  </diagram>
</mxfile>
